<?xml version="1.0" encoding="utf-8"?>
<!-- Generator: Adobe Illustrator 22.0.0, SVG Export Plug-In . SVG Version: 6.00 Build 0)  -->
<svg version="1.1" id="Layer_1" xmlns="http://www.w3.org/2000/svg" xmlns:xlink="http://www.w3.org/1999/xlink" x="0px" y="0px"
	 viewBox="0 0 170 50" style="enable-background:new 0 0 170 50;" xml:space="preserve">
<style type="text/css">
	.st0{fill:url(#SVGID_1_);}
	.st1{fill:#9E905E;}
</style>
<g>
	<g>
		<g>
			<linearGradient id="SVGID_1_" gradientUnits="userSpaceOnUse" x1="57.6685" y1="68.8794" x2="112.209" y2="-25.5875">
				<stop  offset="0" style="stop-color:#045091"/>
				<stop  offset="0.2264" style="stop-color:#0A5191"/>
				<stop  offset="0.3626" style="stop-color:#1C5490"/>
				<stop  offset="0.475" style="stop-color:#31598F"/>
				<stop  offset="0.5744" style="stop-color:#47608D"/>
				<stop  offset="0.6652" style="stop-color:#5F6B8B"/>
				<stop  offset="0.7498" style="stop-color:#7A7986"/>
				<stop  offset="0.8297" style="stop-color:#998C80"/>
				<stop  offset="0.9057" style="stop-color:#BFA676"/>
				<stop  offset="0.9761" style="stop-color:#EDC663"/>
				<stop  offset="1" style="stop-color:#FFD557"/>
			</linearGradient>
			<path class="st0" d="M165.9,21.3l-2.1-7.1L161,4.7c-0.5-1.5-1.2-2.7-2.3-3.4c-1.1-0.7-2.2-1.1-3.5-1.1c-1.4,0-2.5,0.3-3.4,0.9
				c-0.9,0.6-1.7,1.5-2.3,2.6l-6,9.9l-0.3,0.5l-1.9,3.2c-0.6,1.1-1.2,2-1.6,2.9c-0.2,0.4-0.4,0.7-0.6,1c-0.2,0.4-0.5,0.9-0.7,1.3
				c-0.4,0.7-0.7,1.4-1,2l-0.7,1.5c0,0-1.5-2.8-1.8-3.5c-0.2-0.4-0.4-0.8-0.6-1.2c-0.2-0.3-0.4-0.7-0.6-1.1c-0.5-0.8-1-1.8-1.6-2.9
				l-1.8-3.2l-0.3-0.6l-6.1-9.9c-0.6-1.1-1.4-2-2.3-2.6c-0.9-0.6-2-0.9-3.4-0.9c-1.3,0-2.5,0.4-3.5,1.1c-1,0.7-1.8,1.9-2.3,3.4
				l-2.8,9.4l0,0.1L108,19l-0.7,2.3c-0.8,2.6-1.3,4.8-4,5.9c-1,0.4-2,0.5-2.9,0.5H68.6c-1.8,0-3.2-1.4-3.2-3.2c0-1,0.5-1.9,1.3-2.5
				c0.5-0.4,1.2-0.7,1.9-0.7h32.3l2.1-7.2H68.6c-0.7,0-1.4-0.2-1.9-0.7c-0.8-0.6-1.3-1.5-1.3-2.5c0-1.7,1.4-3.2,3.2-3.2h36.3
				l2.3-7.8h-41c-5.9,0-10.7,4.6-11,10.3c-0.3-5.8-5.1-10.3-11-10.3H10.6C8.6,0.3,6.5,0.6,4.7,1.8C2.4,3.3,1,5.5,0,7.9v0h41.9
				c1.8,0,3.2,1.4,3.2,3.2c0,1-0.5,1.9-1.3,2.5c-0.5,0.4-1.2,0.7-1.9,0.7H0v21.3h44.2c5.9,0,10.7-4.6,11-10.3
				c0.3,5.8,5.1,10.3,11,10.3h35.1c0.7,0,1.4,0,2.1,0h0.1l0,0c2.2-0.1,4.4-0.4,6.4-1.6c3.1-2,4.5-5.3,5.5-8.7
				c0.2-0.6,0.4-1.3,0.6-1.9c0.2-0.7,0.4-1.4,0.5-2c0.1-0.2,0.1-0.5,0.2-0.7c0.3-1,0.5-2,0.7-2.8c0.3-1.2,0.6-2.4,0.9-3.6
				c0.1-0.3,0.2-0.7,0.2-1l0.5-2.4l1,2.2c0.2,0.4,0.4,0.8,0.6,1.2c0.1,0.3,0.2,0.5,0.4,0.8c0.3,0.6,0.7,1.4,1.1,2.1
				c0.4,0.8,0.9,1.7,1.4,2.7c0.3,0.5,0.5,1,0.8,1.5c0.3,0.6,0.6,1.2,1,1.8l5.1,8.7c0.5,0.9,0.9,1.5,1.4,2c0.4,0.5,0.9,0.8,1.4,1.1
				c0.4,0.2,0.9,0.4,1.4,0.5c0.1,0,0.2,0,0.2,0c0.5,0.1,1,0.1,1.6,0.1c0.6,0,1.1,0,1.6-0.1c0.1,0,0.2,0,0.2,0c0.5-0.1,1-0.2,1.4-0.5
				c0.4-0.3,0.9-0.6,1.4-1.1c0.5-0.5,0.9-1.1,1.4-2l5.1-8.6c0.4-0.7,0.7-1.3,1-1.9c0.8-1.6,1.5-2.9,2.1-4c0.6-1.1,1.1-2.1,1.6-3.1
				c0.2-0.4,0.4-0.8,0.6-1.2l1.1-2.1l0.5,2.3c0.1,0.3,0.1,0.6,0.2,1c0.3,1.2,0.5,2.4,0.9,3.6c0.3,1,0.6,2.2,1,3.5
				c0.2,0.6,0.4,1.3,0.6,2l3.4,12.2l9.8,0L165.9,21.3z M41.9,27.8H6.7l2-6.3h33.3c0.7,0,1.4,0.2,1.9,0.7c0.8,0.6,1.3,1.5,1.3,2.5
				C45.1,26.4,43.6,27.8,41.9,27.8z M55.2,24.9c-0.1-3.3-2.2-6-5.1-7.2c2.9-1.1,5-3.9,5.1-7.2c0.1,3.3,2.2,6,5.1,7.2
				C57.4,18.9,55.3,21.6,55.2,24.9z"/>
		</g>
	</g>
	<g>
		<path class="st1" d="M5.1,45.3c0,0.5-0.2,0.9-0.8,1.2c0.7,0.2,1,1,1,1.4c0,1.4-1,1.8-2.3,1.8c-1,0-2,0-2.9,0v-6.2c1,0,2,0,2.9,0
			C4.2,43.5,5.1,44,5.1,45.3z M1.1,46h1.8c0.7,0,1-0.3,1-0.7c0-0.3-0.2-0.8-1-0.8H1.1V46z M1.1,48.6h1.8c0.5,0,1.2-0.2,1.2-0.7
			c0-0.6-0.7-0.8-1.2-0.8H1.1V48.6z"/>
		<path class="st1" d="M10.6,48.5H7.3l-0.5,1.2H5.5l2.8-6.2h1.3l2.8,6.2h-1.3L10.6,48.5z M9,44.8l-1.2,2.6h2.3L9,44.8z"/>
		<path class="st1" d="M17.1,43.5h1.2v6.2h-0.7v0l-3.3-4.2v4.2h-1.2v-6.2H14l3,3.8V43.5z"/>
		<path class="st1" d="M24,45c-0.4-0.4-1-0.6-1.6-0.6c-1.3,0-2.1,1-2.1,2.3c0,1,0.6,2.1,2.1,2.1c0.5,0,0.9-0.1,1.4-0.5v-1.1h-1.6v-1
			h2.7v2.6c-0.6,0.7-1.4,1.1-2.5,1.1c-2.3,0-3.3-1.5-3.3-3.2c0-1.7,1.1-3.4,3.3-3.4c0.8,0,1.7,0.3,2.3,1L24,45z"/>
		<path class="st1" d="M30.9,43.5l-2.8,3l3,3.1v0.1h-1.4l-2.6-2.7v2.7h-1.2v-6.2h1.2v2.6l2.4-2.6L30.9,43.5L30.9,43.5z"/>
		<path class="st1" d="M37.4,46.6c0,1.6-1,3.2-3.2,3.2c-2.2,0-3.2-1.6-3.2-3.2c0-1.6,1-3.3,3.2-3.3C36.3,43.4,37.4,45,37.4,46.6z
			 M32.2,46.6c0,1,0.6,2.1,2,2.1c1.5,0,2-1.1,2-2.1c0-1-0.6-2.2-2-2.2C32.7,44.4,32.1,45.6,32.2,46.6z"/>
		<path class="st1" d="M43.3,43.5l-2.8,3l3,3.1v0.1h-1.4l-2.6-2.7v2.7h-1.2v-6.2h1.2v2.6l2.4-2.6L43.3,43.5L43.3,43.5z"/>
		<path class="st1" d="M52.6,49.7h-4.6c0-2.1,0-4.1,0-6.2h4.6v1.1h-3.5V46h3.4v1.1h-3.4v1.4h3.5V49.7z"/>
		<path class="st1" d="M57.8,43.5h1.3v0.1l-2.1,3l2.2,3.1v0h-1.3l-1.6-2.3l-1.6,2.3h-1.3v0l2.2-3.1l-2.1-3v-0.1h1.3l1.5,2.3
			L57.8,43.5z"/>
		<path class="st1" d="M62.8,47.8h-1.8v1.8h-1.2v-6.2c1,0,1.9,0,2.9,0C65.9,43.5,65.9,47.8,62.8,47.8z M61.1,46.8h1.8
			c1.5,0,1.5-2.2,0-2.2h-1.8V46.8z"/>
		<path class="st1" d="M71.5,49.7h-1.4l-1.8-2.1h-1.1v2.1H66v-6.2c1,0,2,0,2.9,0c1.5,0,2.2,1,2.2,2.1c0,0.8-0.4,1.7-1.6,1.9
			L71.5,49.7L71.5,49.7z M67.2,44.6v2h1.8c0.7,0,1.1-0.5,1.1-1c0-0.5-0.3-1-1.1-1H67.2z"/>
		<path class="st1" d="M76.7,49.7H72c0-2.1,0-4.1,0-6.2h4.6v1.1h-3.5V46h3.4v1.1h-3.4v1.4h3.5V49.7z"/>
		<path class="st1" d="M81.7,45c-0.2-0.4-0.8-0.7-1.5-0.7c-0.9,0-1.3,0.4-1.3,0.8c0,0.5,0.6,0.7,1.4,0.8c1.3,0.2,2.5,0.5,2.5,2
			c0,1.4-1.2,2-2.6,2c-1.3,0-2.2-0.4-2.7-1.5l1-0.5c0.3,0.7,1,1,1.7,1c0.7,0,1.4-0.3,1.4-0.9c0-0.6-0.6-0.8-1.4-0.9
			c-1.3-0.2-2.4-0.5-2.4-1.9c0-1.3,1.3-1.8,2.4-1.8c1,0,2,0.3,2.4,1.2L81.7,45z"/>
		<path class="st1" d="M87.6,45c-0.2-0.4-0.8-0.7-1.5-0.7c-0.9,0-1.3,0.4-1.3,0.8c0,0.5,0.6,0.7,1.4,0.8c1.3,0.2,2.5,0.5,2.5,2
			c0,1.4-1.2,2-2.6,2c-1.3,0-2.2-0.4-2.7-1.5l1-0.5c0.3,0.7,1,1,1.7,1c0.7,0,1.4-0.3,1.4-0.9c0-0.6-0.6-0.8-1.4-0.9
			c-1.3-0.2-2.4-0.5-2.4-1.9c0-1.3,1.3-1.8,2.4-1.8c1,0,2,0.3,2.4,1.2L87.6,45z"/>
		<path class="st1" d="M96.4,49.7h-1l-0.8-1.9l-0.7-2l-0.6,2l-0.8,1.9h-1l-2.3-6.2h1.3l1.5,4.5l1.5-4.5h0.8l1.5,4.5l1.4-4.5h1.3
			L96.4,49.7z"/>
		<path class="st1" d="M103.9,48.5h-3.2l-0.5,1.2h-1.3l2.8-6.2h1.3l2.8,6.2h-1.3L103.9,48.5z M102.2,44.8l-1.1,2.6h2.3L102.2,44.8z"
			/>
		<path class="st1" d="M107.9,46l1.6-2.6h1.4v0.1l-2.5,3.6v2.6h-1.2v-2.6l-2.4-3.6v-0.1h1.4L107.9,46z"/>
		<path class="st1" d="M119.7,48.5h-3.2l-0.5,1.2h-1.3l2.8-6.2h1.3l2.8,6.2h-1.3L119.7,48.5z M118.1,44.8l-1.2,2.6h2.3L118.1,44.8z"
			/>
		<path class="st1" d="M126.2,43.5h1.2v6.2h-0.7v0l-3.3-4.2v4.2h-1.2v-6.2h0.9l3,3.8V43.5z"/>
		<path class="st1" d="M133.9,46.5c0,1.6-0.9,3.1-3.1,3.1c-0.8,0-1.7,0-2.4,0v-6.2c0.8,0,1.7,0,2.4,0C133,43.5,133.9,45,133.9,46.5z
			 M129.6,48.5h1.3c1.4,0,2-1,1.9-2c0-1-0.6-1.9-1.9-1.9h-1.3V48.5z"/>
		<path class="st1" d="M144,45.2l-2,2.7h-0.2l-2-2.7v4.5h-1.2v-6.2h1.4l1.9,2.7l1.9-2.7h1.3v6.2H144V45.2z"/>
		<path class="st1" d="M150.9,49.7h-4.6c0-2.1,0-4.1,0-6.2h4.6v1.1h-3.5V46h3.4v1.1h-3.4v1.4h3.5V49.7z"/>
		<path class="st1" d="M153.9,44.5h-2v-1.1c1.8,0,3.3,0,5.1,0v1.1h-2v5.1h-1.2V44.5z"/>
		<path class="st1" d="M163.3,49.7h-1.4l-1.8-2.1H159v2.1h-1.2v-6.2c1,0,2,0,2.9,0c1.5,0,2.2,1,2.2,2.1c0,0.8-0.4,1.7-1.6,1.9
			L163.3,49.7L163.3,49.7z M159,44.6v2h1.8c0.7,0,1.1-0.5,1.1-1c0-0.5-0.3-1-1.1-1H159z"/>
		<path class="st1" d="M170,46.6c0,1.6-1,3.2-3.2,3.2c-2.2,0-3.2-1.6-3.2-3.2c0-1.6,1-3.3,3.2-3.3C168.9,43.4,170,45,170,46.6z
			 M164.8,46.6c0,1,0.6,2.1,2,2.1c1.5,0,2-1.1,2-2.1c0-1-0.6-2.2-2-2.2C165.3,44.4,164.7,45.6,164.8,46.6z"/>
	</g>
</g>
</svg>
